<?xml version="1.0" encoding="UTF-8"?>
<svg id="Layer_1" data-name="Layer 1" xmlns="http://www.w3.org/2000/svg" viewBox="0 0 264 125">
  <g>
    <path d="M151.6,47.5c-.32,0-.68,0-1.08-.03-.4-.02-.81-.05-1.23-.09-.42-.04-.81-.08-1.19-.12s-.7-.09-.96-.16v-1.55c.34.03.76.05,1.24.08.48.03,1,.05,1.55.06.55.01,1.08.02,1.6.02.57,0,1.07-.05,1.52-.16.44-.11.79-.3,1.05-.6s.39-.7.39-1.23v-.85c0-.6-.16-1.05-.49-1.37s-.82-.48-1.48-.48h-1.49c-1.27,0-2.25-.28-2.95-.83s-1.04-1.51-1.04-2.86v-.79c0-1.4.38-2.4,1.14-3.01.76-.6,1.84-.9,3.24-.9.46,0,.96.02,1.49.07.53.05,1.04.1,1.55.17.5.07.92.13,1.25.2v1.55c-.6-.04-1.26-.08-1.99-.13-.73-.05-1.43-.07-2.07-.07-.56,0-1.04.06-1.44.19s-.71.35-.93.67c-.22.32-.33.77-.33,1.35v.6c0,.71.19,1.21.58,1.49.38.28.92.42,1.61.42h1.61c.83,0,1.52.15,2.05.46s.94.72,1.2,1.25.4,1.13.4,1.81v1.03c0,1.03-.21,1.83-.63,2.38-.42.56-.99.94-1.71,1.14-.71.21-1.53.31-2.44.31Z" style="fill: #fff; stroke-width: 0px;"/>
    <path d="M164.2,47.5c-.81,0-1.55-.07-2.22-.22-.67-.14-1.26-.39-1.75-.74-.49-.35-.86-.83-1.12-1.44-.26-.61-.39-1.38-.39-2.3v-10.04h2v10.02c0,.75.14,1.34.41,1.76.27.42.67.71,1.19.89.52.18,1.15.27,1.88.27s1.37-.09,1.89-.27c.52-.18.92-.48,1.19-.89.27-.42.41-1,.41-1.76v-10.02h2v10.04c0,.93-.13,1.69-.4,2.3-.26.61-.64,1.09-1.12,1.44-.48.35-1.06.6-1.74.74-.67.15-1.42.22-2.24.22Z" style="fill: #fff; stroke-width: 0px;"/>
    <path d="M172.39,47.38v-14.62h5.93c.44,0,.89.06,1.35.17s.89.33,1.28.65c.39.32.7.8.94,1.44.24.64.36,1.48.36,2.52s-.12,1.89-.37,2.54-.57,1.14-.96,1.49c-.4.34-.83.58-1.29.69s-.91.18-1.33.18c-.21,0-.5,0-.86-.02-.36-.01-.74-.03-1.14-.06-.4-.03-.77-.05-1.11-.08-.34-.03-.61-.05-.79-.08v5.18h-2ZM174.4,40.65h3.63c.42,0,.8-.1,1.14-.29.34-.19.6-.51.79-.95s.29-1.06.29-1.86-.1-1.39-.29-1.83-.45-.74-.76-.92-.67-.27-1.05-.27h-3.75v6.11Z" style="fill: #fff; stroke-width: 0px;"/>
    <path d="M184.48,47.38v-14.62h5.93c.44,0,.89.06,1.35.17s.89.33,1.28.65c.39.32.7.8.94,1.44.24.64.36,1.48.36,2.52s-.12,1.89-.37,2.54-.57,1.14-.96,1.49c-.4.34-.83.58-1.29.69s-.91.18-1.33.18c-.21,0-.5,0-.86-.02-.36-.01-.74-.03-1.14-.06-.4-.03-.77-.05-1.11-.08-.34-.03-.61-.05-.79-.08v5.18h-2ZM186.48,40.65h3.63c.42,0,.8-.1,1.14-.29.34-.19.6-.51.79-.95s.29-1.06.29-1.86-.1-1.39-.29-1.83-.45-.74-.76-.92-.67-.27-1.05-.27h-3.75v6.11Z" style="fill: #fff; stroke-width: 0px;"/>
    <path d="M201.96,47.5c-.95,0-1.79-.09-2.51-.28-.72-.18-1.32-.53-1.81-1.03-.48-.5-.84-1.24-1.08-2.22-.24-.98-.36-2.26-.36-3.85s.12-2.87.36-3.86c.24-.99.6-1.74,1.09-2.26s1.09-.88,1.81-1.07c.71-.19,1.55-.29,2.5-.29s1.83.1,2.55.29,1.32.55,1.8,1.07.83,1.28,1.07,2.26c.24.99.36,2.27.36,3.86s-.12,2.87-.36,3.85c-.24.98-.6,1.72-1.08,2.22-.48.5-1.08.85-1.81,1.03-.72.19-1.56.28-2.53.28ZM201.96,45.71c.69,0,1.27-.07,1.76-.22.48-.15.87-.41,1.17-.8s.51-.95.65-1.69c.13-.73.2-1.7.2-2.89,0-1.26-.07-2.26-.21-3.02-.14-.75-.35-1.32-.64-1.71-.29-.38-.68-.64-1.16-.77-.48-.13-1.07-.2-1.76-.2-.65,0-1.21.07-1.69.2-.48.13-.87.39-1.17.77-.3.38-.53.95-.68,1.71s-.23,1.76-.23,3.02c0,1.19.06,2.15.19,2.89.12.73.34,1.3.63,1.69s.69.66,1.17.8c.48.15,1.07.22,1.78.22Z" style="fill: #fff; stroke-width: 0px;"/>
    <path d="M210.25,47.38v-14.62h5.85c.5,0,.99.06,1.46.18s.89.34,1.26.65c.37.32.66.76.87,1.34.21.58.32,1.33.32,2.25,0,.75-.08,1.38-.24,1.88-.16.5-.37.9-.62,1.2s-.54.52-.85.67c-.31.15-.62.27-.92.35l2.92,6.09h-2.02l-2.7-5.81c-.2,0-.44,0-.72-.01-.29,0-.58,0-.89,0s-.61,0-.91-.02c-.3-.01-.56-.02-.78-.02v5.87h-2ZM212.25,39.96h3.53c.32,0,.61-.04.87-.11.26-.07.5-.21.7-.42.21-.21.37-.49.49-.85.12-.36.18-.83.18-1.4s-.06-1-.18-1.35c-.12-.34-.28-.61-.5-.79s-.45-.31-.71-.39c-.26-.07-.55-.11-.85-.11h-3.53v5.42Z" style="fill: #fff; stroke-width: 0px;"/>
    <path d="M225.67,47.38v-12.84h-4.37v-1.79h10.74v1.79h-4.37v12.84h-2Z" style="fill: #fff; stroke-width: 0px;"/>
    <path d="M233.8,47.38v-14.62h2v14.62h-2Z" style="fill: #fff; stroke-width: 0px;"/>
    <path d="M238.92,47.38v-14.62h1.63l7.16,11.21v-11.21h1.98v14.62h-1.61l-7.16-11.21v11.21h-2Z" style="fill: #fff; stroke-width: 0px;"/>
    <path d="M256.66,47.48c-.93.01-1.69-.14-2.29-.46-.6-.32-1.08-.79-1.42-1.41-.34-.62-.59-1.4-.72-2.33s-.21-2.01-.21-3.24.08-2.29.23-3.21c.15-.93.41-1.7.78-2.32.37-.62.89-1.09,1.56-1.4s1.5-.47,2.51-.47c.57,0,1.13.02,1.69.06.56.04,1.09.1,1.62.19s1.02.18,1.48.29v1.53c-.26-.04-.63-.08-1.11-.12-.48-.04-1-.08-1.58-.11s-1.16-.05-1.76-.05c-.93,0-1.63.18-2.12.55-.49.36-.83.96-1.02,1.79-.19.83-.29,1.93-.29,3.3,0,1.1.05,2.01.16,2.73.11.72.28,1.29.52,1.71.24.42.57.71.98.89.42.18.94.27,1.58.27s1.21-.07,1.82-.22c.6-.15,1.11-.29,1.54-.44v-3.87h-3.25v-1.53c.26-.04.58-.07.94-.1.36-.03.75-.05,1.15-.07.4-.02.81-.03,1.22-.03.37,0,.71,0,1.02.02.31.01.59.03.84.06v7.9h-1.49l-.3-1.01c-.44.22-1.02.46-1.75.71-.73.25-1.5.38-2.32.4Z" style="fill: #fff; stroke-width: 0px;"/>
    <path d="M150.62,70.46c-.33,0-.68-.03-1.05-.09s-.72-.19-1.06-.38c-.34-.19-.61-.49-.82-.88-.21-.4-.32-.93-.32-1.61v-8.69c0-.58.09-1.07.27-1.47.18-.4.41-.71.71-.94.29-.23.62-.4.98-.5.36-.1.72-.15,1.08-.15.86.01,1.65.03,2.37.05.72.02,1.39.04,2.01.07s1.22.05,1.79.08v1.65h-5.64c-.49,0-.87.13-1.15.38-.28.25-.42.65-.42,1.19v3.04l6.31.12v1.55l-6.31.14v3c0,.45.08.79.23,1.01.15.23.35.38.59.46.25.08.51.12.78.12h5.6v1.65c-.61.04-1.25.08-1.92.11-.67.03-1.35.06-2.03.08-.68.02-1.35.03-1.99.03Z" style="fill: #fff; stroke-width: 0px;"/>
    <path d="M164.35,70.5c-.81,0-1.55-.07-2.22-.22-.67-.14-1.26-.39-1.75-.74-.49-.35-.86-.83-1.12-1.44-.26-.61-.39-1.38-.39-2.3v-10.04h2v10.02c0,.75.14,1.34.41,1.76.27.42.67.71,1.19.89.52.18,1.15.27,1.88.27s1.37-.09,1.89-.27c.52-.18.92-.48,1.19-.89.27-.42.41-1,.41-1.76v-10.02h2v10.04c0,.93-.13,1.69-.4,2.3-.26.61-.64,1.09-1.12,1.44-.48.35-1.06.6-1.74.74-.67.15-1.42.22-2.24.22Z" style="fill: #fff; stroke-width: 0px;"/>
    <path d="M172.55,70.38v-14.62h5.85c.5,0,.99.06,1.46.18s.89.34,1.26.65c.37.32.66.76.87,1.34.21.58.32,1.33.32,2.25,0,.75-.08,1.38-.24,1.88-.16.5-.37.9-.62,1.2s-.54.52-.85.67c-.31.15-.62.27-.92.35l2.92,6.09h-2.02l-2.7-5.81c-.2,0-.44,0-.72-.01-.29,0-.58,0-.89,0s-.61,0-.91-.02c-.3-.01-.56-.02-.78-.02v5.87h-2ZM174.55,62.96h3.53c.32,0,.61-.04.87-.11.26-.07.5-.21.7-.42.21-.21.37-.49.49-.85.12-.36.18-.83.18-1.4s-.06-1-.18-1.35c-.12-.34-.28-.61-.5-.79s-.45-.31-.71-.39c-.26-.07-.55-.11-.85-.11h-3.53v5.42Z" style="fill: #fff; stroke-width: 0px;"/>
    <path d="M190.13,70.5c-.95,0-1.79-.09-2.51-.28-.72-.18-1.32-.53-1.81-1.03-.48-.5-.84-1.24-1.08-2.22-.24-.98-.36-2.26-.36-3.85s.12-2.87.36-3.86c.24-.99.6-1.74,1.09-2.26.49-.52,1.09-.88,1.81-1.07.71-.19,1.55-.29,2.5-.29s1.83.1,2.55.29c.72.19,1.32.55,1.8,1.07.48.52.83,1.28,1.07,2.26.24.99.36,2.27.36,3.86s-.12,2.87-.36,3.85c-.24.98-.6,1.72-1.08,2.22-.48.5-1.08.85-1.81,1.03-.72.19-1.56.28-2.53.28ZM190.13,68.71c.69,0,1.27-.07,1.76-.22.48-.15.87-.41,1.17-.8s.51-.95.64-1.69.2-1.7.2-2.89c0-1.26-.07-2.26-.21-3.02s-.35-1.32-.64-1.71c-.29-.38-.68-.64-1.16-.77-.48-.13-1.07-.2-1.76-.2-.65,0-1.21.07-1.69.2-.48.13-.87.39-1.17.77-.3.38-.53.95-.68,1.71-.15.75-.23,1.76-.23,3.02,0,1.19.06,2.15.19,2.89s.34,1.3.63,1.69c.3.39.69.66,1.17.8.48.15,1.08.22,1.78.22Z" style="fill: #fff; stroke-width: 0px;"/>
    <path d="M198.42,70.38v-14.62h5.93c.44,0,.89.06,1.35.17s.89.33,1.28.65c.39.32.7.8.94,1.44.24.64.36,1.48.36,2.52s-.12,1.89-.37,2.54-.57,1.14-.96,1.49c-.4.34-.83.58-1.29.69s-.91.18-1.33.18c-.21,0-.5,0-.86-.02-.36-.01-.74-.03-1.14-.06-.4-.03-.77-.05-1.11-.08-.34-.03-.61-.05-.79-.08v5.18h-2ZM200.43,63.65h3.63c.42,0,.8-.1,1.14-.29.34-.19.6-.51.79-.95s.29-1.06.29-1.86-.1-1.39-.29-1.83-.45-.74-.76-.92-.67-.27-1.05-.27h-3.75v6.11Z" style="fill: #fff; stroke-width: 0px;"/>
    <path d="M213.76,70.46c-.33,0-.68-.03-1.05-.09s-.72-.19-1.06-.38c-.34-.19-.61-.49-.82-.88-.21-.4-.32-.93-.32-1.61v-8.69c0-.58.09-1.07.27-1.47.18-.4.41-.71.7-.94.29-.23.62-.4.98-.5.36-.1.72-.15,1.08-.15.86.01,1.65.03,2.37.05.72.02,1.39.04,2.01.07.62.03,1.22.05,1.79.08v1.65h-5.63c-.49,0-.87.13-1.15.38-.28.25-.42.65-.42,1.19v3.04l6.31.12v1.55l-6.31.14v3c0,.45.08.79.23,1.01.15.23.35.38.6.46.24.08.51.12.78.12h5.59v1.65c-.61.04-1.25.08-1.92.11-.67.03-1.35.06-2.03.08-.68.02-1.35.03-1.99.03Z" style="fill: #fff; stroke-width: 0px;"/>
    <path d="M221.34,70.38l4.88-14.62h2.54l4.88,14.62h-2.08l-1.29-3.83h-5.6l-1.27,3.83h-2.06ZM225.15,64.74h4.62l-2.3-7.24-2.32,7.24Z" style="fill: #fff; stroke-width: 0px;"/>
    <path d="M235.89,70.38v-14.62h1.63l7.16,11.21v-11.21h1.98v14.62h-1.61l-7.16-11.21v11.21h-2Z" style="fill: #fff; stroke-width: 0px;"/>
    <path d="M146.5,93.38l4.88-14.62h2.54l4.88,14.62h-2.08l-1.29-3.83h-5.59l-1.27,3.83h-2.06ZM150.31,87.74h4.62l-2.3-7.24-2.32,7.24Z" style="fill: #fff; stroke-width: 0px;"/>
    <path d="M164.14,93.38l-4.88-14.62h2.06l4.09,12.5,4.11-12.5h2.04l-4.88,14.62h-2.54Z" style="fill: #fff; stroke-width: 0px;"/>
    <path d="M173.58,93.38v-14.62h2v14.62h-2Z" style="fill: #fff; stroke-width: 0px;"/>
    <path d="M177.61,93.38l4.88-14.62h2.54l4.88,14.62h-2.08l-1.29-3.83h-5.6l-1.27,3.83h-2.06ZM181.42,87.74h4.62l-2.3-7.24-2.32,7.24Z" style="fill: #fff; stroke-width: 0px;"/>
    <path d="M194.18,93.38v-12.84h-4.37v-1.79h10.73v1.79h-4.37v12.84h-2Z" style="fill: #fff; stroke-width: 0px;"/>
    <path d="M202.31,93.38v-14.62h2v14.62h-2Z" style="fill: #fff; stroke-width: 0px;"/>
    <path d="M212.61,93.5c-.95,0-1.79-.09-2.51-.28-.72-.18-1.32-.53-1.81-1.03-.48-.5-.84-1.24-1.08-2.22-.24-.98-.36-2.26-.36-3.85s.12-2.87.36-3.86c.24-.99.6-1.74,1.09-2.26.49-.52,1.09-.88,1.81-1.07.71-.19,1.55-.29,2.5-.29s1.83.1,2.55.29c.72.19,1.32.55,1.8,1.07.48.52.83,1.28,1.07,2.26.24.99.36,2.27.36,3.86s-.12,2.87-.36,3.85c-.24.98-.6,1.72-1.08,2.22-.48.5-1.08.85-1.81,1.03-.72.19-1.56.28-2.53.28ZM212.61,91.71c.69,0,1.27-.07,1.76-.22.48-.15.87-.41,1.17-.8s.51-.95.64-1.69.2-1.7.2-2.89c0-1.26-.07-2.26-.21-3.02s-.35-1.32-.64-1.71c-.29-.38-.68-.64-1.16-.77-.48-.13-1.07-.2-1.76-.2-.65,0-1.21.07-1.69.2-.48.13-.87.39-1.17.77-.3.38-.53.95-.68,1.71-.15.75-.23,1.76-.23,3.02,0,1.19.06,2.15.19,2.89s.34,1.3.63,1.69c.3.39.69.66,1.17.8.48.15,1.08.22,1.78.22Z" style="fill: #fff; stroke-width: 0px;"/>
    <path d="M221.12,93.38v-14.62h1.63l7.16,11.21v-11.21h1.98v14.62h-1.61l-7.16-11.21v11.21h-2Z" style="fill: #fff; stroke-width: 0px;"/>
  </g>
  <rect x=".04" width="125" height="125" rx="16" ry="16" style="fill: #fff; stroke-width: 0px;"/>
  <g>
    <path d="M90.21,34.29c-11.06-15.38-32.47-18.91-47.84-7.84-11.01,7.92-16.32,21.56-13.56,34.85l34.46-15.3h-18.85c4.6-9.88,16.35-14.18,26.23-9.58,2.1.97,3.98,2.3,5.62,3.91l13.95-6.03h0Z" style="fill: #036; stroke-width: 0px;"/>
    <polygon points="97.24 32.6 62.8 67.7 19.02 67.7 97.24 32.6" style="fill: #2990ea; stroke-width: 0px;"/>
    <path d="M62.21,74.01c-4.62,0-9.12-1.58-12.72-4.52h-18.39c8.84,17.22,29.96,24.04,47.18,15.2,6.84-3.52,12.37-9.2,15.69-16.14h-17.88c-3.75,3.52-8.71,5.47-13.87,5.47h0Z" style="fill: #036; stroke-width: 0px;"/>
    <g>
      <path d="M26.27,101.17h-3.14v2.45h3.5v1.25h-5.03v-8.3h4.85v1.25h-3.32v2.15h3.14v1.2h0Z" style="fill: #036; stroke-width: 0px;"/>
      <path d="M29.47,96.54v4.83c0,1.63.69,2.38,1.71,2.38,1.1,0,1.74-.77,1.74-2.38v-4.83h1.51v4.75c0,2.56-1.33,3.7-3.32,3.7s-3.17-1.07-3.17-3.68v-4.75h1.53v-.02h0Z" style="fill: #036; stroke-width: 0px;"/>
      <path d="M36.19,96.67c.77-.13,1.53-.18,2.3-.18,1.2,0,1.99.2,2.56.66.48.41.74,1.05.71,1.69,0,.94-.61,1.79-1.51,2.07v.05c.61.23.97.79,1.15,1.61.18.79.38,1.56.66,2.33h-1.56c-.25-.64-.43-1.28-.56-1.97-.25-1.1-.64-1.43-1.48-1.46h-.77v3.43h-1.51v-8.23h0ZM37.69,100.32h.89c1.02,0,1.66-.53,1.66-1.38,0-.89-.64-1.33-1.61-1.33-.3,0-.64.02-.94.07v2.63h0Z" style="fill: #036; stroke-width: 0px;"/>
      <path d="M46.61,104.97c-2.35,0-3.83-1.79-3.83-4.21,0-2.56,1.61-4.34,3.96-4.34s3.83,1.84,3.83,4.19c0,2.79-1.69,4.37-3.96,4.37h0ZM46.66,103.77c1.46,0,2.3-1.35,2.3-3.09,0-1.56-.77-3.04-2.3-3.04s-2.3,1.43-2.3,3.09.84,3.04,2.3,3.04h0Z" style="fill: #036; stroke-width: 0px;"/>
      <path d="M57.82,104.59c-.69.25-1.43.38-2.17.36-2.63,0-4.24-1.66-4.24-4.19,0-2.74,1.92-4.37,4.44-4.37.69-.02,1.38.1,2.02.36l-.3,1.2c-.51-.2-1.07-.34-1.63-.3-1.69,0-2.91,1.07-2.91,3.07,0,1.81,1.05,2.99,2.89,2.99.56,0,1.12-.1,1.66-.3l.25,1.2v-.02Z" style="fill: #036; stroke-width: 0px;"/>
      <path d="M62.21,104.97c-2.35,0-3.83-1.79-3.83-4.21,0-2.56,1.61-4.34,3.96-4.34s3.86,1.84,3.86,4.19c0,2.79-1.69,4.37-3.98,4.37h0ZM62.29,103.77c1.46,0,2.3-1.35,2.3-3.09,0-1.56-.77-3.04-2.3-3.04s-2.3,1.43-2.3,3.09.84,3.04,2.3,3.04h0Z" style="fill: #036; stroke-width: 0px;"/>
      <path d="M67.48,104.84v-8.3h1.74l2.15,3.55c.53.89,1,1.84,1.4,2.79h.02c-.1-1.15-.16-2.3-.13-3.45v-2.89h1.4v8.3h-1.58l-2.17-3.65c-.53-.92-1.05-1.87-1.48-2.86h-.05c.05,1.07.07,2.17.07,3.52v2.97l-1.38.02h0Z" style="fill: #036; stroke-width: 0px;"/>
      <path d="M77.42,97.82h-2.38v-1.25h6.29v1.25h-2.4v7.05h-1.51v-7.05h0Z" style="fill: #036; stroke-width: 0px;"/>
      <path d="M82.29,96.67c.77-.13,1.53-.18,2.3-.18,1.2,0,1.99.2,2.56.66.48.41.74,1.05.71,1.69,0,.94-.61,1.79-1.51,2.07v.05c.61.23.97.79,1.15,1.61.18.79.38,1.56.64,2.33h-1.56c-.25-.64-.43-1.28-.56-1.97-.25-1.1-.64-1.43-1.48-1.46h-.77v3.43h-1.51l.02-8.23h0ZM83.8,100.32h.89c1.02,0,1.66-.53,1.66-1.38,0-.89-.64-1.33-1.61-1.33-.3,0-.64.02-.94.07v2.63h0Z" style="fill: #036; stroke-width: 0px;"/>
      <path d="M92.72,104.97c-2.35,0-3.83-1.79-3.83-4.21,0-2.56,1.61-4.34,3.96-4.34s3.86,1.84,3.86,4.19c-.02,2.79-1.71,4.37-3.98,4.37h0ZM92.77,103.77c1.46,0,2.3-1.35,2.3-3.09,0-1.56-.77-3.04-2.3-3.04s-2.3,1.43-2.3,3.09.84,3.04,2.3,3.04h0Z" style="fill: #036; stroke-width: 0px;"/>
      <path d="M97.98,96.54h1.51v7.02h3.43v1.25h-4.93v-8.28h0Z" style="fill: #036; stroke-width: 0px;"/>
    </g>
  </g>
</svg>