<?xml version="1.0" encoding="UTF-8"?>
<svg id="Layer_1" data-name="Layer 1" xmlns="http://www.w3.org/2000/svg" viewBox="0 0 32 32">
  <path d="M14.25,27.93c-.4.04-.81.06-1.23.06-6.61,0-11.99-5.38-11.99-11.99S6.42,4.01,13.03,4.01c4.96,0,9.34,2.98,11.16,7.59.1.26.39.38.65.28.26-.1.38-.39.28-.65-1.97-5-6.72-8.23-12.09-8.23C5.86,3.01.04,8.84.04,16s5.83,12.99,12.99,12.99c.44,0,.89-.02,1.33-.07.27-.03.48-.27.45-.55-.03-.27-.27-.47-.55-.45Z" fill="#000" stroke-width="0"/>
  <path d="M13.41,6.54v-1.24c0-.28-.22-.5-.5-.5s-.5.22-.5.5v1.24c0,.28.22.5.5.5s.5-.22.5-.5Z" fill="#000" stroke-width="0"/>
  <path d="M19.95,9.66l.87-.87c.2-.2.2-.51,0-.71s-.51-.2-.71,0l-.87.87c-.2.2-.2.51,0,.71.1.1.23.15.35.15s.26-.05.35-.15Z" fill="#000" stroke-width="0"/>
  <path d="M12.41,25.43v1.24c0,.28.22.5.5.5s.5-.22.5-.5v-1.24c0-.28-.22-.5-.5-.5s-.5.22-.5.5Z" fill="#000" stroke-width="0"/>
  <path d="M5,23.89c.1.1.23.15.35.15s.26-.05.35-.15l.87-.87c.2-.2.2-.51,0-.71s-.51-.2-.71,0l-.87.87c-.2.2-.2.51,0,.71Z" fill="#000" stroke-width="0"/>
  <path d="M2.23,15.49c-.28,0-.5.22-.5.5s.22.5.5.5h1.24c.28,0,.5-.22.5-.5s-.22-.5-.5-.5h-1.24Z" fill="#000" stroke-width="0"/>
  <path d="M5.88,9.66c.1.1.23.15.35.15s.26-.05.35-.15c.2-.2.2-.51,0-.71l-.87-.87c-.2-.2-.51-.2-.71,0s-.2.51,0,.71l.87.87Z" fill="#000" stroke-width="0"/>
  <path d="M11.12,15.48c.16,0,.32-.08.41-.22.15-.23.1-.54-.13-.69l-4.35-2.94c-.23-.15-.54-.1-.69.13-.15.23-.1.54.13.69l4.35,2.94c.09.06.18.09.28.09Z" fill="#000" stroke-width="0"/>
  <path d="M15.33,15.39l4.02-2.67c.23-.15.29-.46.14-.69-.15-.23-.46-.29-.69-.14l-4.02,2.67c-.23.15-.29.46-.14.69.1.15.25.22.42.22.09,0,.19-.03.28-.08Z" fill="#000" stroke-width="0"/>
  <path d="M14.73,16.51c0-.94-.76-1.7-1.7-1.7s-1.7.76-1.7,1.7.76,1.7,1.7,1.7,1.7-.76,1.7-1.7ZM13.03,17.21c-.39,0-.7-.31-.7-.7s.31-.7.7-.7.7.31.7.7-.31.7-.7.7Z" fill="#000" stroke-width="0"/>
  <path d="M25.05,13.77c-.34-.58-.94-.93-1.61-.93s-1.27.35-1.61.93l-6.67,11.55c-.34.58-.33,1.27,0,1.86.33.58.94.93,1.61.93h13.33c.67,0,1.27-.35,1.61-.93s.34-1.27,0-1.85l-6.67-11.55ZM30.85,26.67c-.15.27-.43.43-.74.43h-13.33c-.31,0-.59-.16-.74-.43s-.15-.59,0-.86l6.67-11.55c.31-.54,1.17-.54,1.48,0l6.67,11.55c.15.27.15.59,0,.85Z" fill="#000" stroke-width="0"/>
  <path d="M23.44,16.6c-.28,0-.5.22-.5.5v4.92c0,.28.22.5.5.5s.5-.22.5-.5v-4.92c0-.28-.22-.5-.5-.5Z" fill="#000" stroke-width="0"/>
  <path d="M23.44,24.61c-.28,0-.5.23-.5.5s.22.5.5.5.5-.22.5-.5h0c0-.28-.22-.5-.5-.5Z" fill="#000" stroke-width="0"/>
</svg>