<?xml version="1.0" encoding="UTF-8"?>
<svg id="Layer_1" data-name="Layer 1" xmlns="http://www.w3.org/2000/svg" viewBox="0 0 32 32">
  <path d="M27.15.4h-13.49c-.7,0-1.39.29-1.88.79l-7.37,7.45c-.5.51-.78,1.18-.78,1.9v18.74c0,1.48,1.19,2.68,2.66,2.68h20.86c1.46,0,2.66-1.2,2.66-2.68V3.09c0-1.48-1.19-2.68-2.66-2.68ZM28.81,29.28c0,.93-.74,1.68-1.66,1.68H6.29c-.91,0-1.66-.75-1.66-1.68V10.54c0-.45.17-.87.49-1.19L12.49,1.9c.31-.32.73-.49,1.17-.49h13.49c.91,0,1.66.75,1.66,1.68v26.19Z" fill="#000" stroke-width="0"/>
  <path d="M4.56,6.29c.1.1.23.15.36.15s.25-.05.35-.14c.2-.19.2-.51,0-.71l-1.09-1.1,2.41-2.44,1.08,1.1c.1.1.23.15.36.15s.25-.05.35-.14c.2-.19.2-.51,0-.71l-1.09-1.1.43-.44c.19-.2.19-.51,0-.71-.2-.19-.51-.19-.71,0l-.77.78s0,0,0,0,0,0,0,0l-3.11,3.15s0,0,0,0c0,0,0,0,0,0l-.78.79c-.19.2-.19.51,0,.71.1.1.22.14.35.14s.26-.05.36-.15l.42-.43,1.08,1.09Z" fill="#000" stroke-width="0"/>
  <path d="M25.41,3.31h-10.49c-.67,0-1.22.55-1.22,1.23v2.18c0,.68.55,1.23,1.22,1.23h7.74c.7,0,1.39-.29,1.88-.79l1.74-1.76c.35-.35.45-.88.26-1.34-.19-.46-.62-.75-1.12-.75ZM25.57,4.71l-1.74,1.76c-.31.32-.73.49-1.17.49h-7.74c-.12,0-.22-.1-.22-.23v-2.18c0-.13.1-.23.22-.23h10.49c.12,0,.18.09.2.14.02.04.05.15-.05.25Z" fill="#000" stroke-width="0"/>
  <path d="M25.4,10.55c-.25-.04-.48.09-.56.32-.4,1.1-2.28,1.42-4.47,1.79-4.45.76-10.51,1.8-9.59,10.72-1.13.82-2.02,1.79-2.45,3.2-.08.26.07.54.33.62.05.01.1.02.15.02.21,0,.41-.14.48-.35.62-2.04,2.44-3.02,4.74-4.27,1.84-.99,3.93-2.12,5.78-4.05.19-.2.18-.52-.02-.71-.2-.19-.52-.18-.71.02-1.74,1.82-3.75,2.9-5.53,3.86-.64.34-1.25.68-1.83,1.03-.55-7.49,4.4-8.35,8.81-9.1,1.68-.29,3.21-.54,4.21-1.19-.3,5.32-1.35,8.46-3.42,10.37-1.82,1.68-4.49,2.4-8.18,2.21-.31-.01-.51.2-.52.47-.01.28.2.51.47.52.39.02.77.03,1.14.03,3.39,0,5.94-.82,7.76-2.51,3.1-2.86,3.66-7.93,3.8-12.51,0-.25-.17-.46-.41-.51Z" fill="#000" stroke-width="0"/>
</svg>