<?xml version="1.0" encoding="UTF-8"?>
<svg id="Layer_1" data-name="Layer 1" xmlns="http://www.w3.org/2000/svg" viewBox="0 0 32 32">
  <path d="M17.81,11.49c.06.03.13.04.19.04.13,0,.26-.05.35-.15l7.34-7.34c.1-.1.15-.24.15-.39,0-.14-.08-.28-.19-.36-2.21-1.69-4.83-2.78-7.58-3.14-.14-.02-.29.03-.39.12s-.17.23-.17.38v10.38c0,.2.12.38.31.46ZM18.5,1.23c2.19.37,4.27,1.23,6.08,2.52l-6.08,6.08V1.23Z" fill="#000" stroke-width="0"/>
  <path d="M14.5,15.17V.79c0-.14-.06-.28-.17-.38-.11-.09-.25-.14-.39-.12C6.08,1.31.15,8.07.15,16c0,3.52,1.13,6.86,3.28,9.65.09.11.22.19.36.19.01,0,.02,0,.03,0,.13,0,.26-.05.35-.15l10.17-10.17c.09-.09.15-.22.15-.35ZM13.5,14.96L3.88,24.58c-1.79-2.52-2.73-5.47-2.73-8.58C1.15,8.76,6.42,2.57,13.5,1.37v13.6Z" fill="#000" stroke-width="0"/>
  <path d="M30.68,20.17h-2.67c-.06,0-.11.03-.17.03v-2.87c0-.64-.52-1.17-1.17-1.17h-2.67c-.64,0-1.17.52-1.17,1.17v3.54c-.06,0-.11-.03-.17-.03h-2.67c-.64,0-1.17.52-1.17,1.17v2.2c-.06,0-.11-.03-.17-.03h-2.67c-.64,0-1.17.52-1.17,1.17v5.34c0,.64.52,1.17,1.17,1.17h2.67c.25,0,.48-.1.67-.24.19.14.41.24.67.24h2.67c.25,0,.48-.1.67-.24.19.14.41.24.67.24h2.67c.25,0,.48-.1.67-.24.19.14.41.24.67.24h2.67c.64,0,1.17-.52,1.17-1.17v-9.34c0-.64-.52-1.17-1.17-1.17ZM18.67,30.85h-2.67c-.09,0-.17-.08-.17-.17v-5.34c0-.09.08-.17.17-.17h2.67c.09,0,.17.08.17.17v5.34c0,.09-.08.17-.17.17ZM22.67,30.85h-2.67c-.09,0-.17-.08-.17-.17v-8.68c0-.09.08-.17.17-.17h2.67c.09,0,.17.08.17.17v8.68c0,.09-.08.17-.17.17ZM26.68,30.85h-2.67c-.09,0-.17-.08-.17-.17v-13.35c0-.09.08-.17.17-.17h2.67c.09,0,.17.07.17.17v13.35c0,.09-.08.17-.17.17ZM30.85,30.68c0,.09-.08.17-.17.17h-2.67c-.09,0-.17-.08-.17-.17v-9.34c0-.09.08-.17.17-.17h2.67c.09,0,.17.07.17.17v9.34Z" fill="#000" stroke-width="0"/>
  <path d="M12.77,30.48c-1.95-.43-3.75-1.23-5.35-2.37L28.12,7.42c1.79,2.52,2.73,5.47,2.73,8.58,0,.62-.04,1.28-.13,1.94-.04.27.16.52.43.56.27.04.53-.16.56-.43.09-.7.14-1.4.14-2.07,0-3.52-1.13-6.86-3.28-9.65-.09-.11-.22-.19-.36-.19-.14,0-.28.04-.39.15L6.3,27.82c-.1.1-.15.24-.15.39,0,.14.08.28.19.36,1.83,1.41,3.92,2.38,6.2,2.89.04,0,.07.01.11.01.23,0,.44-.16.49-.39.06-.27-.11-.54-.38-.6Z" fill="#000" stroke-width="0"/>
  <path d="M5.01,14.98c-.04-.05-.1-.08-.16-.11-.19-.07-.41-.03-.54.11-.05.05-.09.1-.11.16-.03.06-.04.13-.04.19,0,.07.01.13.04.19.02.07.06.12.11.17.09.09.22.14.35.14.06,0,.13,0,.19-.04.06-.02.12-.06.16-.1.05-.05.08-.1.11-.17.02-.06.04-.12.04-.19,0-.06-.02-.13-.04-.19-.03-.06-.06-.11-.11-.16Z" fill="#000" stroke-width="0"/>
  <path d="M6.97,15.69s.1.08.17.1c.06.03.12.04.19.04.13,0,.25-.05.35-.14.05-.05.08-.11.11-.17.02-.06.04-.12.04-.19,0-.13-.06-.26-.15-.35-.05-.05-.1-.08-.16-.11-.12-.05-.26-.05-.38,0-.07.03-.12.06-.17.11-.09.09-.15.22-.15.35,0,.07.02.13.04.19.03.06.07.12.11.17Z" fill="#000" stroke-width="0"/>
  <path d="M9.64,15.69s.1.08.17.1c.06.03.12.04.19.04.13,0,.25-.05.35-.14.05-.05.08-.11.11-.17.03-.06.04-.12.04-.19,0-.13-.06-.26-.15-.35-.05-.05-.1-.08-.16-.11-.12-.05-.26-.05-.38,0-.07.03-.12.06-.17.11-.09.09-.15.22-.15.35,0,.07.02.13.04.19.03.06.07.12.11.17Z" fill="#000" stroke-width="0"/>
  <path d="M6.97,13.02s.1.08.17.11c.06.02.12.03.19.03.13,0,.26-.05.35-.14.05-.05.08-.1.11-.17.02-.06.04-.12.04-.19,0-.06-.02-.13-.04-.19-.03-.06-.06-.11-.11-.16-.14-.14-.36-.18-.54-.11-.07.03-.12.06-.17.11-.04.05-.08.1-.11.16-.02.06-.04.13-.04.19,0,.07.02.13.04.19.03.07.07.12.11.17Z" fill="#000" stroke-width="0"/>
  <path d="M4.85,12.2c-.19-.07-.41-.03-.54.11-.1.09-.15.22-.15.35,0,.07.01.13.04.2.02.06.06.11.11.16.09.09.22.14.35.14.06,0,.13,0,.19-.03.06-.03.12-.07.16-.11.05-.05.08-.1.11-.16.02-.07.04-.13.04-.2,0-.13-.05-.26-.15-.35-.04-.05-.1-.08-.16-.11Z" fill="#000" stroke-width="0"/>
  <path d="M9.64,13.02s.1.08.17.11c.06.02.12.03.19.03.13,0,.26-.05.35-.14.05-.05.08-.1.11-.16.03-.07.04-.13.04-.2,0-.13-.06-.26-.15-.35-.05-.05-.1-.08-.16-.11-.12-.05-.26-.05-.38,0-.07.03-.12.06-.17.11-.09.09-.15.22-.15.35,0,.07.02.13.04.2.03.06.07.11.11.16Z" fill="#000" stroke-width="0"/>
</svg>