<?xml version="1.0" encoding="UTF-8"?>
<svg id="Layer_1" data-name="Layer 1" xmlns="http://www.w3.org/2000/svg" viewBox="0 0 32 32">
  <path d="M10.08,4.28h3.06v1.54c0,.28.22.5.5.5s.5-.22.5-.5v-1.54h2.9c.28,0,.5-.22.5-.5s-.22-.5-.5-.5h-2.9v-1.06c0-.28-.22-.5-.5-.5s-.5.22-.5.5v1.06h-3.06c-.28,0-.5.22-.5.5s.22.5.5.5Z" fill="#000" stroke-width="0"/>
  <path d="M24.41,10.39c0-.28-.22-.5-.5-.5H3.37c-.28,0-.5.22-.5.5s.22.5.5.5h20.54c.28,0,.5-.22.5-.5Z" fill="#000" stroke-width="0"/>
  <path d="M10.13,13.27h-1.11c-.28,0-.5.22-.5.5s.22.5.5.5h1.11c.28,0,.5-.22.5-.5s-.22-.5-.5-.5Z" fill="#000" stroke-width="0"/>
  <path d="M14.19,13.27h-1.11c-.28,0-.5.22-.5.5s.22.5.5.5h1.11c.28,0,.5-.22.5-.5s-.22-.5-.5-.5Z" fill="#000" stroke-width="0"/>
  <path d="M18.25,13.27h-1.11c-.28,0-.5.22-.5.5s.22.5.5.5h1.11c.28,0,.5-.22.5-.5s-.22-.5-.5-.5Z" fill="#000" stroke-width="0"/>
  <path d="M22.32,13.27h-1.11c-.28,0-.5.22-.5.5s.22.5.5.5h1.11c.28,0,.5-.22.5-.5s-.22-.5-.5-.5Z" fill="#000" stroke-width="0"/>
  <path d="M6.07,15.84h-1.11c-.28,0-.5.22-.5.5s.22.5.5.5h1.11c.28,0,.5-.22.5-.5s-.22-.5-.5-.5Z" fill="#000" stroke-width="0"/>
  <path d="M10.13,15.84h-1.11c-.28,0-.5.22-.5.5s.22.5.5.5h1.11c.28,0,.5-.22.5-.5s-.22-.5-.5-.5Z" fill="#000" stroke-width="0"/>
  <path d="M14.19,15.84h-1.11c-.28,0-.5.22-.5.5s.22.5.5.5h1.11c.28,0,.5-.22.5-.5s-.22-.5-.5-.5Z" fill="#000" stroke-width="0"/>
  <path d="M18.25,15.84h-1.11c-.28,0-.5.22-.5.5s.22.5.5.5h1.11c.28,0,.5-.22.5-.5s-.22-.5-.5-.5Z" fill="#000" stroke-width="0"/>
  <path d="M22.32,15.84h-1.11c-.28,0-.5.22-.5.5s.22.5.5.5h1.11c.28,0,.5-.22.5-.5s-.22-.5-.5-.5Z" fill="#000" stroke-width="0"/>
  <path d="M6.07,18.42h-1.11c-.28,0-.5.22-.5.5s.22.5.5.5h1.11c.28,0,.5-.22.5-.5s-.22-.5-.5-.5Z" fill="#000" stroke-width="0"/>
  <path d="M10.13,18.42h-1.11c-.28,0-.5.22-.5.5s.22.5.5.5h1.11c.28,0,.5-.22.5-.5s-.22-.5-.5-.5Z" fill="#000" stroke-width="0"/>
  <path d="M14.19,18.42h-1.11c-.28,0-.5.22-.5.5s.22.5.5.5h1.11c.28,0,.5-.22.5-.5s-.22-.5-.5-.5Z" fill="#000" stroke-width="0"/>
  <path d="M18.25,18.42h-1.11c-.28,0-.5.22-.5.5s.22.5.5.5h1.11c.28,0,.5-.22.5-.5s-.22-.5-.5-.5Z" fill="#000" stroke-width="0"/>
  <path d="M6.07,20.99h-1.11c-.28,0-.5.22-.5.5s.22.5.5.5h1.11c.28,0,.5-.22.5-.5s-.22-.5-.5-.5Z" fill="#000" stroke-width="0"/>
  <path d="M10.13,20.99h-1.11c-.28,0-.5.22-.5.5s.22.5.5.5h1.11c.28,0,.5-.22.5-.5s-.22-.5-.5-.5Z" fill="#000" stroke-width="0"/>
  <path d="M14.19,20.99h-1.11c-.28,0-.5.22-.5.5s.22.5.5.5h1.11c.28,0,.5-.22.5-.5s-.22-.5-.5-.5Z" fill="#000" stroke-width="0"/>
  <path d="M18.25,20.99h-1.11c-.28,0-.5.22-.5.5s.22.5.5.5h1.11c.28,0,.5-.22.5-.5s-.22-.5-.5-.5Z" fill="#000" stroke-width="0"/>
  <path d="M6.07,23.57h-1.11c-.28,0-.5.22-.5.5s.22.5.5.5h1.11c.28,0,.5-.22.5-.5s-.22-.5-.5-.5Z" fill="#000" stroke-width="0"/>
  <path d="M10.13,23.57h-1.11c-.28,0-.5.22-.5.5s.22.5.5.5h1.11c.28,0,.5-.22.5-.5s-.22-.5-.5-.5Z" fill="#000" stroke-width="0"/>
  <path d="M14.19,23.57h-1.11c-.28,0-.5.22-.5.5s.22.5.5.5h1.11c.28,0,.5-.22.5-.5s-.22-.5-.5-.5Z" fill="#000" stroke-width="0"/>
  <path d="M18.25,23.57h-1.11c-.28,0-.5.22-.5.5s.22.5.5.5h1.11c.28,0,.5-.22.5-.5s-.22-.5-.5-.5Z" fill="#000" stroke-width="0"/>
  <path d="M28.39,18.42h-1.19V6.07c0-1.54-1.25-2.79-2.79-2.79h-4.7v-1.06c0-.28-.22-.5-.5-.5s-.5.22-.5.5v3.6c0,.28.22.5.5.5s.5-.22.5-.5v-1.54h4.7c.98,0,1.79.8,1.79,1.79v12.35h-2.6c-1.95,0-3.54,1.59-3.54,3.53v4.79c0,.23.03.45.07.66H1.49c-.23,0-.42-.19-.42-.42V6.07c0-.98.8-1.79,1.79-1.79h4.7v1.54c0,.28.22.5.5.5s.5-.22.5-.5v-3.6c0-.28-.22-.5-.5-.5s-.5.22-.5.5v1.06H2.86C1.32,3.28.07,4.53.07,6.07v20.92c0,.78.64,1.42,1.42,1.42h19c.6,1.11,1.76,1.87,3.1,1.87h4.79c1.95,0,3.54-1.59,3.54-3.54v-4.79c0-1.95-1.59-3.53-3.54-3.53ZM30.93,26.75c0,1.4-1.14,2.54-2.54,2.54h-4.79c-1.4,0-2.54-1.14-2.54-2.54v-4.79c0-1.4,1.14-2.53,2.54-2.53h4.79c1.4,0,2.54,1.14,2.54,2.53v4.79Z" fill="#000" stroke-width="0"/>
  <path d="M28.35,21.87l-3.49,3.49-1.22-1.22c-.2-.2-.51-.2-.71,0s-.2.51,0,.71l1.57,1.57c.1.1.23.15.35.15s.26-.05.35-.15l3.84-3.84c.2-.2.2-.51,0-.71s-.51-.2-.71,0Z" fill="#000" stroke-width="0"/>
</svg>