<?xml version="1.0" encoding="UTF-8"?>
<svg id="Layer_1" data-name="Layer 1" xmlns="http://www.w3.org/2000/svg" viewBox="0 0 32 32">
  <path d="M27.33,10.96l-1.48-1.86c-3-3.56-11.04-4.85-15.72-4.85H1.15c-.28,0-.5.22-.5.5s.22.5.5.5h8.99c4.31,0,12.19,1.22,14.94,4.49l.91,1.15-4.68.07c-.28,0-.5.23-.49.51,0,.27.23.49.5.49h0l5.59-.08c1.97.83,4.06,2.36,4.06,3.84,0,2.2-3.25,3.2-3.32,3.22-.05.02-5.11,1.92-14.33,1.92H1.21c-.28,0-.5.22-.5.5s.22.5.5.5h12.11c.2,0,.39,0,.59,0v2.12c-.82.22-1.43.96-1.43,1.85,0,.34.1.65.25.93H.53c-.28,0-.5.22-.5.5s.22.5.5.5h18.05c.28,0,.5-.22.5-.5s-.22-.5-.5-.5h-2.5c.15-.28.25-.59.25-.93,0-.89-.61-1.63-1.43-1.85v-2.13c8.41-.2,12.91-1.89,13.07-1.96.16-.05,4-1.22,4-4.17,0-2.07-2.47-3.84-4.64-4.76ZM15.33,25.83c0,.51-.42.93-.93.93s-.93-.42-.93-.93.42-.93.93-.93.93.42.93.93Z" fill="#000" stroke-width="0"/>
  <path d="M15.1,17.33c1,0,1.81-.81,1.81-1.81v-4.79c0-1-.81-1.81-1.81-1.81h-1.77c-1,0-1.81.81-1.81,1.81v4.79c0,1,.81,1.81,1.81,1.81h1.77ZM12.53,15.52v-4.79c0-.44.36-.81.81-.81h1.77c.44,0,.81.36.81.81v4.79c0,.44-.36.81-.81.81h-1.77c-.44,0-.81-.36-.81-.81Z" fill="#000" stroke-width="0"/>
  <path d="M9.58,12.07v-1.19c0-.28-.22-.5-.5-.5s-.5.22-.5.5v1.19c0,.28.22.5.5.5s.5-.22.5-.5Z" fill="#000" stroke-width="0"/>
  <path d="M6.52,12.57c.28,0,.5-.22.5-.5v-1.19c0-.28-.22-.5-.5-.5s-.5.22-.5.5v1.19c0,.28.22.5.5.5Z" fill="#000" stroke-width="0"/>
  <path d="M4.45,12.07v-1.19c0-.28-.22-.5-.5-.5s-.5.22-.5.5v1.19c0,.28.22.5.5.5s.5-.22.5-.5Z" fill="#000" stroke-width="0"/>
  <path d="M1.38,12.57c.28,0,.5-.22.5-.5v-1.19c0-.28-.22-.5-.5-.5s-.5.22-.5.5v1.19c0,.28.22.5.5.5Z" fill="#000" stroke-width="0"/>
  <path d="M26.07,26.75h-4.76c-.28,0-.5.22-.5.5s.22.5.5.5h4.76c.28,0,.5-.22.5-.5s-.22-.5-.5-.5Z" fill="#000" stroke-width="0"/>
  <path d="M1.38,17.33h4.41c.28,0,.5-.22.5-.5s-.22-.5-.5-.5H1.38c-.28,0-.5.22-.5.5s.22.5.5.5Z" fill="#000" stroke-width="0"/>
</svg>